<?xml version="1.0" encoding="utf-8"?>
<!-- Generator: Adobe Illustrator 27.5.0, SVG Export Plug-In . SVG Version: 6.00 Build 0)  -->
<svg version="1.1" id="Layer_1" xmlns="http://www.w3.org/2000/svg" xmlns:xlink="http://www.w3.org/1999/xlink" x="0px" y="0px"
	 viewBox="0 0 1300 1300" style="enable-background:new 0 0 1300 1300;" xml:space="preserve">
<g id="XMLID_6_">
	<g id="XMLID_1_">
		<g id="XMLID_173_">
			<polygon id="XMLID_186_" style="fill:#003E56;" points="432.675,558.09 534.358,456.408 517.206,439.257 398.373,558.09 
				517.206,676.923 534.357,659.772 			"/>
			<polygon id="XMLID_185_" style="fill:#003E56;" points="653.191,778.605 551.509,676.923 534.357,694.075 653.191,812.908 
				772.024,694.075 754.873,676.923 			"/>
			<polygon id="XMLID_184_" style="fill:#003E56;" points="653.191,337.575 754.872,439.257 772.024,422.105 653.191,303.272 
				534.358,422.105 551.509,439.257 			"/>
			<polygon id="XMLID_183_" style="fill:#003E56;" points="873.706,558.09 772.024,659.772 789.176,676.923 908.009,558.09 
				789.175,439.257 772.024,456.408 			"/>
			<polygon id="XMLID_182_" style="fill:#003E56;" points="809.209,558.09 739.776,627.523 756.927,644.674 843.512,558.09 
				756.927,471.505 739.776,488.656 			"/>
			<polygon id="XMLID_181_" style="fill:#003E56;" points="653.191,714.108 583.757,644.674 566.606,661.826 653.191,748.411 
				739.776,661.826 722.624,644.674 			"/>
			<polygon id="XMLID_180_" style="fill:#003E56;" points="497.173,558.09 566.606,488.656 549.455,471.505 462.87,558.09 
				549.455,644.674 566.606,627.523 			"/>
			<polygon id="XMLID_179_" style="fill:#003E56;" points="653.191,402.071 722.624,471.505 739.776,454.353 653.191,367.769 
				566.606,454.353 583.757,471.505 			"/>
			<polygon id="XMLID_178_" style="fill:#003E56;" points="653.191,466.21 690.555,503.574 707.706,486.423 653.191,431.907 
				598.675,486.423 615.827,503.574 			"/>
			<polygon id="XMLID_177_" style="fill:#003E56;" points="561.311,558.09 598.675,520.725 581.524,503.574 527.008,558.09 
				581.523,612.606 598.675,595.454 			"/>
			<polygon id="XMLID_176_" style="fill:#003E56;" points="745.071,558.09 707.707,595.454 724.858,612.606 779.374,558.09 
				724.858,503.574 707.706,520.725 			"/>
			<polygon id="XMLID_175_" style="fill:#003E56;" points="653.191,649.97 615.826,612.606 598.675,629.757 653.191,684.273 
				707.707,629.757 690.555,612.606 			"/>
		</g>
		<g id="XMLID_2_">
			<polygon id="XMLID_5_" style="fill:#008641;" points="510.825,428.854 391.991,547.687 426.294,547.687 527.976,446.005 			"/>
			<polygon id="XMLID_23_" style="fill:#00A651;" points="510.824,666.52 527.976,649.369 426.294,547.687 391.991,547.687 			"/>
			<polygon id="XMLID_24_" style="fill:#006DA6;" points="765.642,446.005 867.324,547.687 901.627,547.687 782.794,428.854 			"/>
			<polygon id="XMLID_25_" style="fill:#17479E;" points="765.643,649.369 782.794,666.52 901.627,547.687 867.324,547.687 			"/>
			<polygon id="XMLID_26_" style="fill:#007CB2;" points="733.394,617.12 750.545,634.271 837.13,547.687 802.827,547.687 			"/>
			<polygon id="XMLID_27_" style="fill:#0083CA;" points="750.545,461.102 733.394,478.253 802.827,547.687 802.827,547.687 
				837.13,547.687 837.13,547.687 			"/>
			<polygon id="XMLID_28_" style="fill:#00AE4D;" points="560.224,478.253 543.073,461.102 456.488,547.687 456.489,547.687 
				490.791,547.687 490.791,547.687 			"/>
			<polygon id="XMLID_29_" style="fill:#62BB46;" points="543.073,634.271 560.224,617.12 490.791,547.687 456.489,547.687 			"/>
			<polygon id="XMLID_30_" style="fill:#8DC63F;" points="575.142,493.171 520.626,547.687 554.929,547.687 592.294,510.322 			"/>
			<polygon id="XMLID_31_" style="fill:#B2D235;" points="575.142,602.203 592.293,585.051 554.929,547.687 520.626,547.687 			"/>
			<polygon id="XMLID_32_" style="fill:#00AEEF;" points="701.325,585.051 718.477,602.203 772.992,547.687 738.689,547.687 			"/>
			<polygon id="XMLID_33_" style="fill:#7ED3F7;" points="701.325,510.322 738.689,547.687 772.992,547.687 718.476,493.171 			"/>
		</g>
		<g id="XMLID_3_">
			<polygon id="XMLID_4_" style="fill:#FCAF17;" points="545.127,666.52 527.976,683.672 646.809,802.505 646.809,768.203 			"/>
			<polygon id="XMLID_11_" style="fill:#FFCB05;" points="748.491,666.52 646.809,768.203 646.809,802.505 765.643,683.672 			"/>
			<polygon id="XMLID_12_" style="fill:#D71920;" points="527.976,411.702 545.128,428.854 646.809,327.172 646.809,292.869 			"/>
			<polygon id="XMLID_13_" style="fill:#BA141A;" points="765.642,411.702 646.809,292.869 646.809,327.172 748.491,428.854 			"/>
			<polygon id="XMLID_14_" style="fill:#FFF200;" points="716.243,634.271 646.809,703.705 646.809,738.008 733.394,651.423 			"/>
			<polygon id="XMLID_15_" style="fill:#FFCB05;" points="577.376,634.271 560.224,651.423 646.809,738.008 646.809,703.705 			"/>
			<polygon id="XMLID_16_" style="fill:#F26649;" points="560.224,443.951 577.376,461.102 646.809,391.668 646.809,357.366 			"/>
			<polygon id="XMLID_17_" style="fill:#E11B22;" points="733.394,443.951 646.809,357.366 646.809,391.668 716.243,461.102 			"/>
			<polygon id="XMLID_18_" style="fill:#F26522;" points="701.325,476.02 646.809,421.504 646.809,455.807 684.173,493.171 			"/>
			<polygon id="XMLID_19_" style="fill:#F58220;" points="592.294,476.02 609.445,493.171 646.809,455.807 646.809,421.504 			"/>
			<polygon id="XMLID_20_" style="fill:#FFF450;" points="609.444,602.203 592.293,619.354 646.809,673.87 646.809,639.567 			"/>
			<polygon id="XMLID_21_" style="fill:#FFF8A3;" points="684.174,602.203 646.809,639.567 646.809,673.87 701.325,619.354 			"/>
		</g>
	</g>
	<g id="XMLID_8_">
		<path id="XMLID_68_" style="fill:#003E56;" d="M330.44,931.059h-73.632v-96.042h25.054v74.885h48.578V931.059z"/>
		<path id="XMLID_70_" style="fill:#003E56;" d="M433.438,883.039c0,30.761-19.208,49.969-49.135,49.969
			c-29.926,0-49.134-19.208-49.134-49.969c0-30.9,19.208-49.97,49.134-49.97C414.229,833.069,433.438,852.138,433.438,883.039z
			 M407.826,883.039c0-20.461-9.047-31.597-23.523-31.597c-14.476,0-23.523,11.136-23.523,31.597
			c0,20.321,9.047,31.596,23.523,31.596C398.779,914.635,407.826,903.36,407.826,883.039z"/>
		<path id="XMLID_73_" style="fill:#003E56;" d="M536.571,879.837v51.223h-19.487l-2.366-14.754l-4.176,10.578
			c-5.429,4.594-11.97,6.124-22.131,6.124c-25.611,0-43.567-16.981-43.567-49.273c0-33.405,22.549-50.665,48.856-50.665
			c27.421,0,41.479,14.615,43.428,33.545l0.139,1.392h-25.054l-0.278-1.392c-2.088-10.3-8.352-15.172-18.513-15.172
			c-12.249,0-22.41,10.021-22.41,30.762c0,24.219,10.439,32.431,22.271,32.431c9.744,0,16.146-4.732,19.626-15.311h-18.651v-19.487
			H536.571z"/>
		<path id="XMLID_75_" style="fill:#003E56;" d="M648.752,883.039c0,30.761-19.209,49.969-49.135,49.969
			c-29.926,0-49.134-19.208-49.134-49.969c0-30.9,19.208-49.97,49.134-49.97C629.543,833.069,648.752,852.138,648.752,883.039z
			 M623.141,883.039c0-20.461-9.048-31.597-23.523-31.597c-14.476,0-23.523,11.136-23.523,31.597
			c0,20.321,9.047,31.596,23.523,31.596C614.093,914.635,623.141,903.36,623.141,883.039z"/>
		<path id="XMLID_78_" style="fill:#003E56;" d="M735.32,854.505v76.555h-25.055v-76.555h-31.179v-19.487h87.412v19.487H735.32z"/>
		<path id="XMLID_80_" style="fill:#003E56;" d="M849.868,931.059h-73.632v-96.042h72.239v19.487H801.29v18.651h44.402v19.486
			H801.29v18.931h48.578V931.059z"/>
		<path id="XMLID_82_" style="fill:#003E56;" d="M904.842,898.628l-18.651,32.432h-30.205l34.381-48.438l-32.015-47.604h29.23
			l18.095,32.015l19.486-32.015h28.813l-33.545,47.187l33.824,48.855h-29.23L904.842,898.628z"/>
		<path id="XMLID_84_" style="fill:#003E56;" d="M1012.013,854.505v76.555h-25.055v-76.555H955.78v-19.487h87.412v19.487H1012.013z"
			/>
	</g>
	<g id="XMLID_7_">
		<path id="XMLID_9_" style="fill:#B2D235;" d="M275.563,981.879c0,9.645-5.807,14.571-12.392,14.571
			c-3.474,0-5.704-1.037-7.933-3.526l-1.504-3.422v6.222h-1.141v-38.111h1.141v17.06l1.452-3.111
			c2.437-2.904,4.874-3.837,8.607-3.837C270.896,967.724,275.563,973.583,275.563,981.879z M274.319,982.086
			c0-7.156-3.733-13.274-10.63-13.274c-5.393,0-9.956,3.008-9.956,11.979v3.059c0,8.919,5.185,11.511,9.437,11.511
			C269.704,995.36,274.319,989.916,274.319,982.086z"/>
		<path id="XMLID_34_" style="fill:#B2D235;" d="M331.821,995.724h-1.141v-6.222l-1.089,2.696c-2.022,2.852-5.185,4.252-8.556,4.252
			c-5.497,0-8.815-3.059-9.385-8.4c-0.155-1.4-0.207-2.23-0.207-4.46v-15.14h1.141v14.674c0,1.919,0.052,3.111,0.207,4.511
			c0.518,4.614,3.059,7.725,8.245,7.725c4.978,0,9.645-3.474,9.645-10.733V968.45h1.141V995.724z"/>
		<path id="XMLID_36_" style="fill:#B2D235;" d="M386.989,975.865h-1.14c-1.141-4.771-3.682-7.053-8.141-7.053
			c-3.786,0-7.26,2.23-7.26,6.222c0,3.837,3.059,5.341,7.415,6.326c6.274,1.4,9.385,3.371,9.385,7.934
			c0,4.355-3.837,7.156-9.178,7.156c-5.081,0-9.437-2.593-10.111-8.814h1.14c0.882,5.755,4.511,7.725,9.074,7.725
			c4.304,0,7.882-2.073,7.882-6.014c0-3.786-2.178-5.393-8.712-6.897c-4.303-0.985-8.089-2.748-8.089-7.363
			c0-4.2,3.526-7.363,8.504-7.363C383.411,967.724,386.263,971.354,386.989,975.865z"/>
		<path id="XMLID_38_" style="fill:#B2D235;" d="M425.565,962.902c0,0.57-0.466,1.037-1.037,1.037c-0.571,0-1.037-0.467-1.037-1.037
			c0-0.571,0.467-1.038,1.037-1.038C425.099,961.864,425.565,962.331,425.565,962.902z M423.958,995.724V968.45h1.141v27.274
			H423.958z"/>
		<path id="XMLID_41_" style="fill:#B2D235;" d="M483.949,980.583v15.141h-1.141v-14.674c0-1.918-0.052-3.111-0.207-4.511
			c-0.519-4.615-3.059-7.726-8.245-7.726c-4.978,0-9.645,3.475-9.645,10.734v16.178h-1.141V968.45h1.141v6.222l1.089-2.697
			c2.022-2.852,5.185-4.252,8.555-4.252c5.496,0,8.815,3.059,9.385,8.399C483.897,977.524,483.949,978.353,483.949,980.583z"/>
		<path id="XMLID_43_" style="fill:#B2D235;" d="M543.578,982.346h-22.348c0.207,9.437,5.6,13.015,10.63,13.015
			c4.304,0,8.607-2.437,10.215-7.985h1.141c-1.659,6.015-6.274,9.074-11.459,9.074c-6.326,0-11.719-4.926-11.719-14.467
			c0-8.607,5.393-14.259,12.133-14.259c7.83,0,11.459,6.844,11.459,13.636C543.629,981.568,543.629,981.775,543.578,982.346z
			 M521.229,981.257h21.259c-0.207-9.437-5.755-12.445-10.422-12.445C527.244,968.812,521.437,972.701,521.229,981.257z"/>
		<path id="XMLID_46_" style="fill:#B2D235;" d="M596.983,975.865h-1.141c-1.141-4.771-3.682-7.053-8.141-7.053
			c-3.786,0-7.26,2.23-7.26,6.222c0,3.837,3.059,5.341,7.415,6.326c6.274,1.4,9.385,3.371,9.385,7.934
			c0,4.355-3.837,7.156-9.178,7.156c-5.081,0-9.437-2.593-10.111-8.814h1.141c0.881,5.755,4.511,7.725,9.074,7.725
			c4.304,0,7.882-2.073,7.882-6.014c0-3.786-2.178-5.393-8.711-6.897c-4.304-0.985-8.089-2.748-8.089-7.363
			c0-4.2,3.526-7.363,8.504-7.363C593.406,967.724,596.258,971.354,596.983,975.865z"/>
		<path id="XMLID_48_" style="fill:#B2D235;" d="M650.649,975.865h-1.141c-1.14-4.771-3.681-7.053-8.141-7.053
			c-3.785,0-7.259,2.23-7.259,6.222c0,3.837,3.06,5.341,7.415,6.326c6.274,1.4,9.385,3.371,9.385,7.934
			c0,4.355-3.837,7.156-9.178,7.156c-5.082,0-9.437-2.593-10.112-8.814h1.141c0.882,5.755,4.511,7.725,9.074,7.725
			c4.304,0,7.881-2.073,7.881-6.014c0-3.786-2.177-5.393-8.711-6.897c-4.304-0.985-8.089-2.748-8.089-7.363
			c0-4.2,3.526-7.363,8.504-7.363C647.071,967.724,649.923,971.354,650.649,975.865z"/>
		<path id="XMLID_50_" style="fill:#B2D235;" d="M735.942,994.998v0.933c-0.674,0.104-1.711,0.156-2.593,0.156
			c-2.437,0-3.733-1.141-3.941-3.526c-0.104-1.245-0.104-2.127-0.104-3.682V969.59h-3.267v-0.933h3.267v-5.6h1.141v5.6h5.341v0.933
			h-5.341v19.497c0,1.451,0,2.23,0.052,2.955C730.705,994.738,731.898,995.568,735.942,994.998z"/>
		<path id="XMLID_52_" style="fill:#B2D235;" d="M788.778,989.034l-1.193,2.749c-1.919,3.059-5.133,4.666-8.814,4.666
			c-5.186,0-8.401-2.437-8.401-7.311c0-6.378,8.09-9.126,16.593-9.126h1.763v-1.4c0-1.296,0-2.333-0.104-3.526
			c-0.363-4.097-3.06-6.275-7.519-6.275c-3.837,0-7.933,2.022-8.556,7.104h-1.14c0.311-4.563,4.303-8.192,9.696-8.192
			c5.341,0,8.296,2.644,8.659,7.207c0.104,1.4,0.104,2.126,0.104,3.578v8.4c0,3.111,0.156,5.237,0.467,8.815h-1.193L788.778,989.034
			z M788.726,984.886v-3.733c-7.986-0.518-17.111,1.711-17.111,7.933c0,3.786,2.333,6.274,7.31,6.274
			C784.786,995.36,788.726,990.279,788.726,984.886z"/>
		<path id="XMLID_55_" style="fill:#B2D235;" d="M849.184,988.465c0,4.304,0,6.43-0.052,8.192
			c-0.207,6.171-4.252,10.474-11.2,10.474c-5.03,0-9.592-2.022-10.423-8.192l-0.104-0.778h1.141l0.104,0.778
			c0.673,5.237,4.874,7.104,9.385,7.104c6.43,0,9.8-4.045,9.956-9.748c0.052-1.815,0.052-3.215,0.052-5.756v-1.037l-1.452,3.111
			c-2.437,2.904-4.874,3.837-8.607,3.837c-7.104,0-11.771-5.859-11.771-14.156c0-9.644,5.808-14.57,12.393-14.57
			c3.474,0,5.703,1.037,7.933,3.526l1.504,3.422v-6.43h1.14V988.465z M848.043,983.383v-3.059c0-8.919-5.186-11.512-9.437-11.512
			c-6.533,0-11.148,5.445-11.148,13.274c0,7.156,3.733,13.274,10.63,13.274C843.48,995.36,848.043,992.353,848.043,983.383z"/>
		<path id="XMLID_58_" style="fill:#B2D235;" d="M888.64,989.501c0,1.815,0,2.852,0.052,3.578c0.104,1.711,0.778,2.073,2.904,1.815
			v0.985c-0.518,0.104-0.985,0.104-1.504,0.104c-1.4,0-2.437-0.571-2.54-2.645c-0.052-1.037-0.052-1.866-0.052-3.837v-31.889h1.141
			V989.501z"/>
		<path id="XMLID_60_" style="fill:#B2D235;" d="M929.344,962.902c0,0.57-0.467,1.037-1.038,1.037c-0.57,0-1.037-0.467-1.037-1.037
			c0-0.571,0.467-1.038,1.037-1.038C928.877,961.864,929.344,962.331,929.344,962.902z M927.736,995.724V968.45h1.14v27.274H927.736
			z"/>
		<path id="XMLID_63_" style="fill:#B2D235;" d="M987.727,980.583v15.141h-1.14v-14.674c0-1.918-0.052-3.111-0.207-4.511
			c-0.518-4.615-3.06-7.726-8.245-7.726c-4.978,0-9.645,3.475-9.645,10.734v16.178h-1.14V968.45h1.14v6.222l1.089-2.697
			c2.022-2.852,5.185-4.252,8.555-4.252c5.497,0,8.815,3.059,9.385,8.399C987.675,977.524,987.727,978.353,987.727,980.583z"/>
		<path id="XMLID_65_" style="fill:#B2D235;" d="M1047.356,982.346h-22.349c0.207,9.437,5.6,13.015,10.63,13.015
			c4.304,0,8.608-2.437,10.215-7.985h1.141c-1.66,6.015-6.274,9.074-11.459,9.074c-6.326,0-11.719-4.926-11.719-14.467
			c0-8.607,5.393-14.259,12.134-14.259c7.83,0,11.459,6.844,11.459,13.636C1047.407,981.568,1047.407,981.775,1047.356,982.346z
			 M1025.007,981.257h21.26c-0.207-9.437-5.755-12.445-10.423-12.445C1031.022,968.812,1025.214,972.701,1025.007,981.257z"/>
	</g>
</g>
</svg>
